# xmcd CD database file
# Copyright (C) 1993-1998 Ti Kan
#
# Track frame offsets:
#  150
#  19030
#  40762
#  59625
#  78445
#  95762
#  114017
#  132220
#  150820
#  152770
#  170792
#  188297
#  206810
#  225567
#
# Disc length: 3057 seconds
#
# Revision: 1
# Processed by: cddbd v1.4b41PL1 Copyright (c) Steve Scherf et al.
# Submitted via: CDWizzard Release:4.61
#
DISCID=a60bef0e
DTITLE=Eric Gadd - Floating
DYEAR=1900
DGENRE=
TTITLE0=What Once Was
TTITLE1=Why Don't You. Why Don't I
TTITLE2=There's No One Like You
TTITLE3=Still Your Man
TTITLE4=I Am The One
TTITLE5=There She Goes
TTITLE6=For You
TTITLE7=A Miracle
TTITLE8=Interlude
TTITLE9=Matching
TTITLE10=I Will Always Depend On You
TTITLE11=Nothing Secret
TTITLE12=Floating On Love
TTITLE13=[Outro]
EXTD=
EXTT0=
EXTT1=
EXTT2=
EXTT3=
EXTT4=
EXTT5=
EXTT6=
EXTT7=
EXTT8=
EXTT9=
EXTT10=
EXTT11=
EXTT12=
EXTT13=
PLAYORDER=
